<svg width="250" height="180" viewBox="0 0 250 180" fill="none" xmlns="http://www.w3.org/2000/svg">
  <style>
    .st0{fill:none;stroke:currentColor;stroke-width:1.5;stroke-linecap:round;stroke-linejoin:round;}
    .text{font-family:Arial, sans-serif;font-size:10px;fill:currentColor;}
    .text-small{font-family:Arial, sans-serif;font-size:8px;fill:currentColor;}
    .loop-arrow{fill:none;stroke:currentColor;stroke-width:1;stroke-dasharray:2,2;marker-end:url(#arrowhead);}
  </style>
  <defs>
    <marker id="arrowhead" markerWidth="5" markerHeight="3.5" refX="2.5" refY="1.75" orient="auto">
      <polygon points="0 0, 5 1.75, 0 3.5" fill="currentColor" />
    </marker>
  </defs>

  {/* Voltage Source (Battery Symbol) */}
  <line class="st0" x1="50" y1="40" x2="50" y2="55" />
  <line class="st0" x1="45" y1="55" x2="55" y2="55" />
  <line class="st0" x1="45" y1="65" x2="55" y2="65" />
  <line class="st0" x1="50" y1="65" x2="50" y2="80" />
  <line class="st0" x1="40" y1="80" x2="60" y2="80" />
  <line class="st0" x1="50" y1="80" x2="50" y2="95" />
  <text x="30" y="73" class="text">Vin</text>
  <text x="62" y="50" class="text-small">+</text>
  <text x="62" y="85" class="text-small">-</text>

  {/* Wires */}
  <line class="st0" x1="50" y1="40" x2="120" y2="40" /> {/* Top wire */}
  <line class="st0" x1="50" y1="95" x2="120" y2="95" /> {/* Bottom wire (to GND start) */}
  <line class="st0" x1="120" y1="95" x2="120" y2="120" /> {/* R2 bottom to GND connection */}
  
  {/* Resistor R1 */}
  <rect x="120" y="35" width="40" height="10" class="st0"/>
  <text x="165" y="43" class="text">R1</text>
  <line class="st0" x1="160" y1="40" x2="200" y2="40"/> {/* Wire after R1 */}
  
  {/* Node X (Vout) */}
  <circle cx="200" cy="40" r="2.5" fill="currentColor"/>
  <text x="205" y="38" class="text">X (Vout)</text>
  <line class="st0" x1="200" y1="40" x2="200" y2="70"/> {/* Wire from Node X to R2 top */}

  {/* Resistor R2 */}
  <rect x="180" y="70" width="40" height="10" class="st0" transform="rotate(90 200 75)"/> {/* Rotated R2 */}
  <text x="205" y="78" class="text">R2</text>
  <line class="st0" x1="200" y1="80" x2="200" y2="120"/> {/* Wire from R2 bottom */}
  <line class="st0" x1="200" y1="120" x2="120" y2="120"/> {/* Wire R2 bottom to GND line */}


  {/* Ground Symbol */}
  <line class="st0" x1="100" y1="120" x2="140" y2="120"/>
  <line class="st0" x1="108" y1="125" x2="132" y2="125"/>
  <line class="st0" x1="116" y1="130" x2="124" y2="130"/>

  {/* Optional Loop Arrow for Current */}
  <path class="loop-arrow" d="M55 30 C 85 10, 195 10, 225 30" />
  <text x="135" y="20" class="text-small">I</text>
</svg>
